IKResults
version=1
nRows=29
nColumns=24
inDegrees=yes

Units are S.I. units (second, meters, Newtons, ...)
If the header above contains a line with 'inDegrees', this indicates whether rotational values are in degrees (yes) or radians (no).

endheader
time	pelvis_tilt	pelvis_list	pelvis_rotation	pelvis_tx	pelvis_ty	pelvis_tz	hip_flexion_r	hip_adduction_r	hip_rotation_r	knee_angle_r	ankle_angle_r	subtalar_angle_r	mtp_angle_r	hip_flexion_l	hip_adduction_l	hip_rotation_l	knee_angle_l	ankle_angle_l	subtalar_angle_l	mtp_angle_l	lumbar_extension	lumbar_bending	lumbar_rotation
2.300000	11.491072	2.785994	-180.946016	0.324611	0.477479	-1.219523	85.585007	-28.547517	-6.845573	-117.310827	40.472065	9.841342	0.000000	90.444893	-33.883356	-0.732840	-117.746775	40.403774	13.304312	0.000000	-12.291601	2.085525	4.501698
2.305000	11.589088	2.798099	-180.940561	0.324692	0.482045	-1.219555	85.007214	-28.385799	-7.039831	-116.469905	40.395224	10.209469	0.000000	89.856832	-33.794121	-1.092308	-116.945541	40.146969	13.162847	0.000000	-12.170546	2.080794	4.531725
2.310000	11.646571	2.802170	-180.923529	0.324686	0.486620	-1.219527	84.435765	-28.299815	-7.490081	-115.696179	39.994423	9.620928	0.000000	89.209462	-33.698021	-1.473207	-116.154743	39.952972	13.094441	0.000000	-12.092669	2.083827	4.525524
2.315000	11.719506	2.797267	-180.904517	0.324718	0.491261	-1.219585	83.825697	-28.154233	-7.673780	-114.829149	39.890154	10.040198	0.000000	88.572092	-33.601720	-1.857220	-115.330835	39.710962	13.025441	0.000000	-11.997476	2.059317	4.516144
2.320000	11.792488	2.797401	-180.908632	0.324654	0.495914	-1.219612	83.246720	-28.010888	-7.975826	-113.997265	39.628225	9.995198	0.000000	87.930829	-33.530076	-2.240356	-114.511648	39.471186	12.959372	0.000000	-11.892499	2.055831	4.509635
2.325000	11.846158	2.818801	-180.906127	0.324544	0.500634	-1.219605	82.632258	-27.876158	-8.313635	-113.168061	39.375298	9.857172	0.000000	87.280582	-33.451926	-2.598294	-113.688664	39.256673	12.869355	0.000000	-11.795283	2.081197	4.516072
2.330000	11.853548	2.702945	-180.894301	0.324351	0.505391	-1.219330	82.093931	-27.834660	-8.578130	-112.377156	38.953324	9.268915	0.000000	86.739698	-33.240662	-2.351969	-112.644709	38.396950	13.768022	0.000000	-11.740920	1.983948	4.495633
2.335000	11.933707	2.812762	-180.928627	0.324301	0.510061	-1.219674	81.424238	-27.565455	-8.891081	-111.491017	38.867878	9.625786	0.000000	85.931084	-33.302753	-3.355157	-112.038591	38.745078	12.671859	0.000000	-11.625364	2.060128	4.547296
2.340000	11.996795	2.765487	-180.911819	0.324167	0.514781	-1.219672	80.877916	-27.472456	-9.265787	-110.669186	38.402327	9.027681	0.000000	85.232453	-33.178191	-3.791949	-111.186480	38.517262	12.606025	0.000000	-11.505581	2.010829	4.522982
2.345000	12.049609	2.743787	-180.903313	0.323994	0.519496	-1.219687	80.263639	-27.313993	-9.409062	-109.783766	38.266861	9.383887	0.000000	84.548685	-33.074157	-4.189692	-110.323620	38.288004	12.569652	0.000000	-11.391585	1.994234	4.501301
2.350000	12.105110	2.715487	-180.913846	0.323785	0.524274	-1.219703	79.705719	-27.178254	-9.774174	-108.954910	37.807818	8.812679	0.000000	83.853867	-32.978737	-4.598296	-109.467763	38.023540	12.472904	0.000000	-11.279013	1.968706	4.468675
2.355000	12.144049	2.715597	-180.953910	0.323544	0.529080	-1.219682	79.093948	-26.986084	-10.045446	-108.084082	37.517053	8.711672	0.000000	83.163210	-32.906191	-4.965911	-108.622471	37.782538	12.389588	0.000000	-11.174485	1.971685	4.506987
2.360000	12.177308	2.713293	-180.977202	0.323283	0.533909	-1.219707	78.443792	-26.779176	-10.190671	-107.169123	37.382716	9.067924	0.000000	82.466810	-32.825380	-5.334774	-107.754467	37.497406	12.283880	0.000000	-11.070387	1.967336	4.511560
2.365000	12.215671	2.663215	-180.943512	0.322998	0.538674	-1.219599	77.842519	-26.684085	-10.388451	-106.287519	37.116137	9.140316	0.000000	81.743184	-32.657635	-5.761788	-106.882700	37.218087	12.193681	0.000000	-10.955853	1.921702	4.484093
2.370000	12.247161	2.651203	-180.933021	0.322700	0.543516	-1.219645	77.201233	-26.527120	-10.650761	-105.388771	36.825420	9.086762	0.000000	81.039839	-32.542806	-6.140311	-105.995073	36.915145	12.130091	0.000000	-10.844365	1.901969	4.478464
2.375000	12.295788	2.632903	-180.949422	0.322337	0.548336	-1.219571	76.603701	-26.360374	-10.873298	-104.492349	36.544431	9.031112	0.000000	80.344644	-32.419115	-6.519674	-105.124254	36.637676	12.032726	0.000000	-10.704433	1.896637	4.476566
2.380000	12.343509	2.620742	-180.972502	0.321976	0.553161	-1.219532	76.000496	-26.182111	-11.103799	-103.591590	36.258880	9.019501	0.000000	79.664123	-32.310051	-6.881595	-104.239185	36.314053	11.901181	0.000000	-10.569628	1.893586	4.471170
2.385000	12.342383	2.604530	-181.008295	0.321544	0.558037	-1.219476	75.389593	-26.035428	-11.526882	-102.744672	35.726901	8.159645	0.000000	78.913144	-32.210433	-7.257018	-103.360206	36.030961	11.775628	0.000000	-10.480986	1.885606	4.518076
2.390000	12.405048	2.571127	-181.019201	0.321137	0.562855	-1.219349	74.771218	-25.866113	-11.577769	-101.776199	35.637099	8.825605	0.000000	78.225925	-32.068546	-7.647642	-102.461154	35.714075	11.656857	0.000000	-10.313028	1.866357	4.535201
2.395000	12.404371	2.535919	-181.017118	0.320707	0.567694	-1.219307	74.158986	-25.752193	-11.983210	-100.922663	35.062443	8.052235	0.000000	77.478163	-31.925698	-8.030872	-101.563175	35.406376	11.607686	0.000000	-10.217563	1.828808	4.526269
2.400000	12.472611	2.546168	-181.031613	0.320318	0.572477	-1.219362	73.555093	-25.553991	-12.250584	-99.982841	34.717324	7.981119	0.000000	76.835701	-31.809795	-8.351268	-100.645227	35.061252	11.538601	0.000000	-10.055101	1.829101	4.534812
2.405000	12.504470	2.530990	-181.023297	0.319813	0.577316	-1.219210	72.920140	-25.423966	-12.496481	-99.051233	34.390823	7.922049	0.000000	76.131545	-31.658195	-8.715272	-99.735876	34.717385	11.389902	0.000000	-9.907244	1.829820	4.561934
2.410000	12.527949	2.539306	-181.050971	0.319299	0.582202	-1.219157	72.276017	-25.233661	-12.753417	-98.114238	34.049614	7.849677	0.000000	75.425212	-31.540491	-9.044267	-98.814916	34.388608	11.244380	0.000000	-9.777974	1.847921	4.586993
2.415000	12.585500	2.523042	-181.081813	0.318832	0.587016	-1.219155	71.689260	-25.058725	-12.995603	-97.179524	33.702915	7.779332	0.000000	74.748476	-31.426568	-9.409141	-97.891767	34.047284	11.141597	0.000000	-9.608933	1.838380	4.588318
2.420000	12.702982	2.530633	-181.094557	0.318021	0.592143	-1.218973	71.054888	-24.902762	-13.291172	-96.148700	33.348973	7.742365	0.000000	74.071224	-31.293287	-9.784405	-96.909806	33.717234	11.073248	0.000000	-9.302388	1.649542	5.165681
2.425000	12.712215	2.490355	-181.095471	0.317486	0.596948	-1.218956	70.416849	-24.765323	-13.511877	-95.204305	32.975610	7.704537	0.000000	73.326483	-31.147594	-10.177061	-95.984340	33.374590	11.006109	0.000000	-9.180805	1.641235	5.042211
2.430000	12.766922	2.484713	-181.129501	0.316927	0.601747	-1.218927	69.809797	-24.590021	-13.764702	-94.238402	32.606656	7.681519	0.000000	72.663684	-31.045787	-10.515168	-95.085506	33.003761	10.969610	0.000000	-9.054433	1.553888	5.226649
2.435000	12.672895	2.451285	-181.127090	0.316594	0.606379	-1.219027	69.126326	-24.439669	-13.971311	-93.352481	32.295896	7.561078	0.000000	71.883835	-30.909257	-10.855429	-94.183443	32.654656	10.867954	0.000000	-9.059945	1.780313	4.623688
2.440000	12.690262	2.420786	-181.155553	0.315941	0.611237	-1.219001	68.493672	-24.282940	-14.204827	-92.395597	31.915783	7.527328	0.000000	71.136600	-30.789004	-11.257637	-93.246893	32.214455	10.735954	0.000000	-8.917980	1.753902	4.627522
